Coordinates
version=1
nRows=9
nColumns=24
inDegrees=yes

Units are S.I. units (second, meters, Newtons, ...)
Angles are in degrees.

endheader
time	pelvis_tilt	pelvis_list	pelvis_rotation	pelvis_tx	pelvis_ty	pelvis_tz	hip_flexion_r	hip_adduction_r	hip_rotation_r	knee_angle_r	ankle_angle_r	subtalar_angle_r	mtp_angle_r	hip_flexion_l	hip_adduction_l	hip_rotation_l	knee_angle_l	ankle_angle_l	subtalar_angle_l	mtp_angle_l	lumbar_extension	lumbar_bending	lumbar_rotation
      0.99133333	     -4.67603296	     -3.20609479	     -1.79154382	     -0.10766873	      1.01585403	      0.29676697	     -6.81333029	      8.33625051	      2.17220072	    -10.04303592	     11.41337121	     -4.43348807	      4.27625003	     23.74233984	     -3.18628288	     -3.06529797	      3.17235554	      4.31657666	     -4.35239476	     -2.25105212	     -1.11952661	      1.91502699	      4.76762234
      0.99550000	     -4.75099567	     -3.14585839	     -1.87159816	     -0.10172201	      1.01520634	      0.29643423	     -6.80047595	      8.22621479	      2.11753260	    -10.63091984	     11.56867379	     -4.23650290	      4.28127409	     23.77731133	     -3.07351379	     -2.77767275	      3.07384632	      4.25179810	     -4.20441232	     -2.02933543	     -0.99712000	      1.85619498	      4.83731828
      0.99966667	     -4.80791484	     -3.07186728	     -1.95051643	     -0.09575428	      1.01461439	      0.29609820	     -6.79416754	      8.10476474	      2.10693752	    -11.24217372	     11.68633083	     -4.12284679	      4.30285574	     23.79379461	     -2.94685477	     -2.50021626	      2.90427221	      4.16455590	     -4.08306876	     -1.81203446	     -0.89571729	      1.77015713	      4.90004120
      1.00383333	     -4.84968473	     -2.99402923	     -2.02665886	     -0.08979797	      1.01407156	      0.29574809	     -6.76766725	      7.97827706	      2.06267801	    -11.92098800	     11.77822893	     -3.99630387	      4.34783085	     23.80857210	     -2.81558814	     -2.25785404	      2.64716329	      4.03112309	     -3.97881864	     -1.54290258	     -0.81921399	      1.67873522	      4.96850310
      1.00800000	     -4.86746944	     -2.90012477	     -2.06933374	     -0.08380043	      1.01356545	      0.29532330	     -6.74212470	      7.83083383	      1.94344846	    -12.65015417	     11.91767979	     -3.78839670	      4.55143847	     23.79600177	     -2.65373675	     -1.97269009	      2.34303144	      3.88936408	     -3.87365151	     -0.62606550	     -0.77559059	      1.60567353	      5.06147117
      1.01216667	     -4.89288128	     -2.78485115	     -2.15787596	     -0.07778430	      1.01310630	      0.29501170	     -6.70904435	      7.67784960	      2.02893858	    -13.37080857	     11.86131705	     -3.89821509	      4.58135005	     23.79121867	     -2.49200304	     -1.80519532	      1.97598029	      3.66742844	     -3.81591209	     -0.52723298	     -0.71242314	      1.43762939	      5.06628930
      1.01633333	     -4.88134179	     -2.66861055	     -2.19346309	     -0.07176384	      1.01268693	      0.29456383	     -6.65514487	      7.50445256	      1.87722620	    -14.21309985	     11.96562700	     -3.65952683	      5.00742229	     23.75331995	     -2.30388556	     -1.52616754	      1.56331381	      3.42708023	     -3.86482074	      0.59437123	     -0.69904734	      1.30654617	      5.20294041
      1.02050000	     -4.86789764	     -2.54209893	     -2.26374868	     -0.06573202	      1.01233008	      0.29419116	     -6.60927660	      7.34014642	      1.93232882	    -15.02934845	     11.83861367	     -3.81203990	      5.02717753	     23.72316943	     -2.12310106	     -1.40549621	      1.08275936	      3.17463797	     -3.82236836	      0.63764809	     -0.70685932	      1.18587492	      5.19727941
      1.02466667	     -4.90796404	     -2.41856956	     -2.33129746	     -0.05967576	      1.01190710	      0.29380513	     -6.45819004	      7.17501738	      1.91654830	    -15.94146393	     11.72990012	     -3.82749565	      6.58235694	     23.73753621	     -1.94620062	     -1.19989522	      0.60297068	      2.78784443	     -3.95891293	      3.36755718	     -0.60482675	      1.02912998	      5.23209814
